<svg xmlns="http://www.w3.org/2000/svg" xmlns:xlink="http://www.w3.org/1999/xlink" id="body_1" preserveAspectRatio="xMinYMin meet" viewBox="0 0 1121 793"><defs><clipPath id="1"><path d="M0 595L0 -0.2999878L0 -0.2999878L841.9 -0.2999878L841.9 -0.2999878L841.9 595L841.9 595L0 595z" /></clipPath><clipPath id="2"><path d="M0 -0.2999878L841.9 -0.2999878L841.9 -0.2999878L841.9 595L841.9 595L0 595z" /></clipPath><clipPath id="3"><path d="M0 -0.2999878L841.9 -0.2999878L841.9 -0.2999878L841.9 595L841.9 595L0 595z" /></clipPath><clipPath id="4"><path d="M418.7 535.3L423.2 535.3L423.2 535.3L423.2 545.65L423.2 545.65L418.7 545.65z" /></clipPath><clipPath id="5"><path d="M0 -0.2999878L841.9 -0.2999878L841.9 -0.2999878L841.9 595L841.9 595L0 595z" /></clipPath><clipPath id="6"><path d="M0 -0.2999878L841.9 -0.2999878L841.9 -0.2999878L841.9 595L841.9 595L0 595z" /></clipPath><clipPath id="7"><path d="M164.75 193.8L832.1 193.8L832.1 193.8L832.1 344.85L832.1 344.85L164.75 344.85z" /></clipPath><clipPath id="8"><path d="M0 -0.2999878L841.9 -0.2999878L841.9 -0.2999878L841.9 595L841.9 595L0 595z" /></clipPath><clipPath id="9"><path d="M566.2 350.45L776.95 350.45L776.95 350.45L776.95 471.3L776.95 471.3L566.2 471.3z" /></clipPath></defs><g transform="matrix(1.333333 0 0 1.333333 0 0)"><g><g clip-path="url(#1)"><g clip-path="url(#2)"><path transform="matrix(1 0 0 -1 0 595)" d="M72 527.8L769.9 527.8L769.9 527.8L769.9 527.32L769.9 527.32L72 527.32z" stroke="none" fill="#000000" fill-rule="evenodd" /></g><g clip-path="url(#3)"><g clip-path="url(#4)"></g></g><g clip-path="url(#5)"><g transform="matrix(0.8226563 0 0 0.7729688 0.84 -0.1799927)"><g transform="matrix(1 0 0 1 0 0)"><image x="0" y="0" xlink:href="img_01.png" width="1024" height="768" /></g></g><path transform="matrix(1 0 0 -1 0 595)" d="M164.76 404.74L832.08 404.74L832.08 404.74L832.08 246.58L832.08 246.58L164.76 246.58z" stroke="none" fill="#FFFFFF" fill-rule="evenodd" /></g><g clip-path="url(#6)"><g clip-path="url(#7)"></g></g><g clip-path="url(#8)"><g clip-path="url(#9)"></g></g></g></g></g></svg>