<svg xmlns="http://www.w3.org/2000/svg" xmlns:xlink="http://www.w3.org/1999/xlink" id="body_3" preserveAspectRatio="xMinYMin meet" viewBox="0 0 793 1121"><defs><clipPath id="1"><path d="M0 841L0 -0.9000244L0 -0.9000244L595.3 -0.9000244L595.3 -0.9000244L595.3 841L595.3 841L0 841z" /></clipPath><clipPath id="2"><path d="M0 -0.9000244L595.3 -0.9000244L595.3 -0.9000244L595.3 841L595.3 841L0 841z" /></clipPath><clipPath id="3"><path d="M0 -0.9000244L595.3 -0.9000244L595.3 -0.9000244L595.3 841L595.3 841L0 841z" /></clipPath><clipPath id="4"><path d="M295.4 781.3L299.9 781.3L299.9 781.3L299.9 791.65L299.9 791.65L295.4 791.65z" /></clipPath><clipPath id="5"><path d="M0 -0.9000244L595.3 -0.9000244L595.3 -0.9000244L595.3 841L595.3 841L0 841z" /></clipPath><clipPath id="6"><path d="M0 -0.9000244L595.3 -0.9000244L595.3 -0.9000244L595.3 841L595.3 841L0 841z" /></clipPath><clipPath id="7"><path d="M-1638.4 71.09998L2143.65 71.09998L2143.65 71.09998L2143.65 102.4L2143.65 102.4L-1638.4 102.4z" /></clipPath><clipPath id="8"><path d="M0 -0.9000244L595.3 -0.9000244L595.3 -0.9000244L595.3 841L595.3 841L0 841z" /></clipPath><clipPath id="9"><path d="M-1638.4 102.25L2143.65 102.25L2143.65 102.25L2143.65 122.25L2143.65 122.25L-1638.4 122.25z" /></clipPath><clipPath id="10"><path d="M0 -0.9000244L595.3 -0.9000244L595.3 -0.9000244L595.3 841L595.3 841L0 841z" /></clipPath><clipPath id="11"><path d="M-1638.4 122.3L2143.65 122.3L2143.65 122.3L2143.65 142.3L2143.65 142.3L-1638.4 142.3z" /></clipPath><clipPath id="12"><path d="M0 -0.9000244L595.3 -0.9000244L595.3 -0.9000244L595.3 841L595.3 841L0 841z" /></clipPath><clipPath id="13"><path d="M-1638.4 142.3L2143.65 142.3L2143.65 142.3L2143.65 162.3L2143.65 162.3L-1638.4 162.3z" /></clipPath><clipPath id="14"><path d="M0 -0.9000244L595.3 -0.9000244L595.3 -0.9000244L595.3 841L595.3 841L0 841z" /></clipPath><clipPath id="15"><path d="M-1638.4 162.25L2143.65 162.25L2143.65 162.25L2143.65 182.25L2143.65 182.25L-1638.4 182.25z" /></clipPath><clipPath id="16"><path d="M0 -0.9000244L595.3 -0.9000244L595.3 -0.9000244L595.3 841L595.3 841L0 841z" /></clipPath><clipPath id="17"><path d="M-1638.4 182.3L2143.65 182.3L2143.65 182.3L2143.65 202.3L2143.65 202.3L-1638.4 202.3z" /></clipPath><clipPath id="18"><path d="M0 -0.9000244L595.3 -0.9000244L595.3 -0.9000244L595.3 841L595.3 841L0 841z" /></clipPath><clipPath id="19"><path d="M-1638.4 202.3L2143.65 202.3L2143.65 202.3L2143.65 222.3L2143.65 222.3L-1638.4 222.3z" /></clipPath><clipPath id="20"><path d="M0 -0.9000244L595.3 -0.9000244L595.3 -0.9000244L595.3 841L595.3 841L0 841z" /></clipPath><clipPath id="21"><path d="M-1638.4 242.3L2143.65 242.3L2143.65 242.3L2143.65 273.6L2143.65 273.6L-1638.4 273.6z" /></clipPath><clipPath id="22"><path d="M0 -0.9000244L595.3 -0.9000244L595.3 -0.9000244L595.3 841L595.3 841L0 841z" /></clipPath><clipPath id="23"><path d="M0 -0.9000244L595.3 -0.9000244L595.3 -0.9000244L595.3 841L595.3 841L0 841z" /></clipPath><clipPath id="24"><path d="M-1638.4 304.7L2143.65 304.7L2143.65 304.7L2143.65 324.7L2143.65 324.7L-1638.4 324.7z" /></clipPath><clipPath id="25"><path d="M0 -0.9000244L595.3 -0.9000244L595.3 -0.9000244L595.3 841L595.3 841L0 841z" /></clipPath><clipPath id="26"><path d="M-1638.4 324.7L2143.65 324.7L2143.65 324.7L2143.65 344.7L2143.65 344.7L-1638.4 344.7z" /></clipPath><clipPath id="27"><path d="M0 -0.9000244L595.3 -0.9000244L595.3 -0.9000244L595.3 841L595.3 841L0 841z" /></clipPath><clipPath id="28"><path d="M-1638.4 344.65L2143.65 344.65L2143.65 344.65L2143.65 364.65L2143.65 364.65L-1638.4 364.65z" /></clipPath><clipPath id="29"><path d="M0 -0.9000244L595.3 -0.9000244L595.3 -0.9000244L595.3 841L595.3 841L0 841z" /></clipPath><clipPath id="30"><path d="M-1638.4 364.7L2143.65 364.7L2143.65 364.7L2143.65 384.7L2143.65 384.7L-1638.4 384.7z" /></clipPath><clipPath id="31"><path d="M0 -0.9000244L595.3 -0.9000244L595.3 -0.9000244L595.3 841L595.3 841L0 841z" /></clipPath><clipPath id="32"><path d="M-1638.4 384.7L2143.65 384.7L2143.65 384.7L2143.65 404.7L2143.65 404.7L-1638.4 404.7z" /></clipPath><clipPath id="33"><path d="M0 -0.9000244L595.3 -0.9000244L595.3 -0.9000244L595.3 841L595.3 841L0 841z" /></clipPath><clipPath id="34"><path d="M-1638.4 404.65L2143.65 404.65L2143.65 404.65L2143.65 424.65L2143.65 424.65L-1638.4 424.65z" /></clipPath><clipPath id="35"><path d="M0 -0.9000244L595.3 -0.9000244L595.3 -0.9000244L595.3 841L595.3 841L0 841z" /></clipPath><clipPath id="36"><path d="M-1638.4 717.2L2143.65 717.2L2143.65 717.2L2143.65 737.2L2143.65 737.2L-1638.4 737.2z" /></clipPath></defs><g transform="matrix(1.333333 0 0 1.333333 0 0)"><g><g clip-path="url(#1)"><g clip-path="url(#2)"><path transform="matrix(1 0 0 -1 0 841)" d="M90 774.4L505.3 774.4L505.3 774.4L505.3 773.92L505.3 773.92L90 773.92z" stroke="none" fill="#000000" fill-rule="evenodd" /></g><g clip-path="url(#3)"><g clip-path="url(#4)"></g></g><g clip-path="url(#5)"><g transform="matrix(0.5057943 0 0 0.5058641 82.2 445.26)"><g transform="matrix(1 0 0 1 0 0)"><image x="0" y="0" xlink:href="img_04.png" width="856" height="515" /></g></g></g><g clip-path="url(#6)"><g clip-path="url(#7)"></g></g><g clip-path="url(#8)"><g clip-path="url(#9)"></g></g><g clip-path="url(#10)"><g clip-path="url(#11)"></g></g><g clip-path="url(#12)"><g clip-path="url(#13)"></g></g><g clip-path="url(#14)"><g clip-path="url(#15)"></g></g><g clip-path="url(#16)"><g clip-path="url(#17)"></g></g><g clip-path="url(#18)"><g clip-path="url(#19)"></g></g><g clip-path="url(#20)"><g clip-path="url(#21)"></g></g><g clip-path="url(#22)"></g><g clip-path="url(#23)"><g clip-path="url(#24)"><path transform="matrix(1 0 0 -1 0 841)" d="M150 518.9L402 518.9" stroke="#0000FF" stroke-width="0.6" fill="none" /></g></g><g clip-path="url(#25)"><g clip-path="url(#26)"></g></g><g clip-path="url(#27)"><g clip-path="url(#28)"></g></g><g clip-path="url(#29)"><g clip-path="url(#30)"></g></g><g clip-path="url(#31)"><g clip-path="url(#32)"></g></g><g clip-path="url(#33)"><g clip-path="url(#34)"></g></g><g clip-path="url(#35)"><g clip-path="url(#36)"></g></g></g></g></g></svg>