<svg xmlns="http://www.w3.org/2000/svg" xmlns:xlink="http://www.w3.org/1999/xlink" id="body_8" preserveAspectRatio="xMinYMin meet" viewBox="0 0 793 1121"><defs><clipPath id="1"><path d="M0 841L0 -0.9000244L0 -0.9000244L595.3 -0.9000244L595.3 -0.9000244L595.3 841L595.3 841L0 841z" /></clipPath><clipPath id="2"><path d="M0 -0.9000244L595.3 -0.9000244L595.3 -0.9000244L595.3 841L595.3 841L0 841z" /></clipPath><clipPath id="3"><path d="M0 -0.9000244L595.3 -0.9000244L595.3 -0.9000244L595.3 841L595.3 841L0 841z" /></clipPath><clipPath id="4"><path d="M295.4 781.3L299.9 781.3L299.9 781.3L299.9 791.65L299.9 791.65L295.4 791.65z" /></clipPath><clipPath id="5"><path d="M0 -0.9000244L595.3 -0.9000244L595.3 -0.9000244L595.3 841L595.3 841L0 841z" /></clipPath><clipPath id="6"><path d="M0 -0.9000244L595.3 -0.9000244L595.3 -0.9000244L595.3 841L595.3 841L0 841z" /></clipPath><clipPath id="7"><path d="M-1638.4 265.65L2143.65 265.65L2143.65 265.65L2143.65 285.65L2143.65 285.65L-1638.4 285.65z" /></clipPath><clipPath id="8"><path d="M0 -0.9000244L595.3 -0.9000244L595.3 -0.9000244L595.3 841L595.3 841L0 841z" /></clipPath><clipPath id="9"><path d="M-1638.4 305.7L2143.65 305.7L2143.65 305.7L2143.65 325.7L2143.65 325.7L-1638.4 325.7z" /></clipPath><clipPath id="10"><path d="M0 -0.9000244L595.3 -0.9000244L595.3 -0.9000244L595.3 841L595.3 841L0 841z" /></clipPath><clipPath id="11"><path d="M-1638.4 325.65L2143.65 325.65L2143.65 325.65L2143.65 345.65L2143.65 345.65L-1638.4 345.65z" /></clipPath><clipPath id="12"><path d="M0 -0.9000244L595.3 -0.9000244L595.3 -0.9000244L595.3 841L595.3 841L0 841z" /></clipPath><clipPath id="13"><path d="M-1638.4 345.7L2143.65 345.7L2143.65 345.7L2143.65 365.7L2143.65 365.7L-1638.4 365.7z" /></clipPath><clipPath id="14"><path d="M0 -0.9000244L595.3 -0.9000244L595.3 -0.9000244L595.3 841L595.3 841L0 841z" /></clipPath><clipPath id="15"><path d="M-1638.4 645.7L2143.65 645.7L2143.65 645.7L2143.65 665.7L2143.65 665.7L-1638.4 665.7z" /></clipPath><clipPath id="16"><path d="M0 -0.9000244L595.3 -0.9000244L595.3 -0.9000244L595.3 841L595.3 841L0 841z" /></clipPath><clipPath id="17"><path d="M-1638.4 743.6L2143.65 743.6L2143.65 743.6L2143.65 763.6L2143.65 763.6L-1638.4 763.6z" /></clipPath></defs><g transform="matrix(1.333333 0 0 1.333333 0 0)"><g><g clip-path="url(#1)"><g clip-path="url(#2)"><path transform="matrix(1 0 0 -1 0 841)" d="M90 774.4L505.3 774.4L505.3 774.4L505.3 773.92L505.3 773.92L90 773.92z" stroke="none" fill="#000000" fill-rule="evenodd" /></g><g clip-path="url(#3)"><g clip-path="url(#4)"></g></g><g clip-path="url(#5)"><g transform="matrix(0.4176435 0 0 0.4176 91.44 78.66003)"><g transform="matrix(1 0 0 1 0 0)"><image x="0" y="0" xlink:href="img_23.png" width="993" height="450" /></g></g><g transform="matrix(0.398942 0 0 0.3990778 105.6 371.22)"><g transform="matrix(1 0 0 1 0 0)"><image x="0" y="0" xlink:href="img_24.png" width="983" height="694" /></g></g><g transform="matrix(0.247823 0 0 0.2478462 86.52 675.3)"><g transform="matrix(1 0 0 1 0 0)"><image x="0" y="0" xlink:href="img_25.png" width="1672" height="260" /></g></g></g><g clip-path="url(#6)"><g clip-path="url(#7)"></g></g><g clip-path="url(#8)"><g clip-path="url(#9)"></g></g><g clip-path="url(#10)"><g clip-path="url(#11)"></g></g><g clip-path="url(#12)"><g clip-path="url(#13)"></g></g><g clip-path="url(#14)"><g clip-path="url(#15)"></g></g><g clip-path="url(#16)"><g clip-path="url(#17)"></g></g></g></g></g></svg>