<svg xmlns="http://www.w3.org/2000/svg" xmlns:xlink="http://www.w3.org/1999/xlink" id="body_9" preserveAspectRatio="xMinYMin meet" viewBox="0 0 793 1121"><defs><clipPath id="1"><path d="M0 841L0 -0.9000244L0 -0.9000244L595.3 -0.9000244L595.3 -0.9000244L595.3 841L595.3 841L0 841z" /></clipPath><clipPath id="2"><path d="M0 -0.9000244L595.3 -0.9000244L595.3 -0.9000244L595.3 841L595.3 841L0 841z" /></clipPath><clipPath id="3"><path d="M0 -0.9000244L595.3 -0.9000244L595.3 -0.9000244L595.3 841L595.3 841L0 841z" /></clipPath><clipPath id="4"><path d="M295.4 781.3L299.9 781.3L299.9 781.3L299.9 791.65L299.9 791.65L295.4 791.65z" /></clipPath><clipPath id="5"><path d="M0 -0.9000244L595.3 -0.9000244L595.3 -0.9000244L595.3 841L595.3 841L0 841z" /></clipPath><clipPath id="6"><path d="M0 -0.9000244L595.3 -0.9000244L595.3 -0.9000244L595.3 841L595.3 841L0 841z" /></clipPath><clipPath id="7"><path d="M-1638.4 71.04999L2143.65 71.04999L2143.65 71.04999L2143.65 91.04999L2143.65 91.04999L-1638.4 91.04999z" /></clipPath><clipPath id="8"><path d="M0 -0.9000244L595.3 -0.9000244L595.3 -0.9000244L595.3 841L595.3 841L0 841z" /></clipPath><clipPath id="9"><path d="M-1638.4 91.09998L2143.65 91.09998L2143.65 91.09998L2143.65 111.1L2143.65 111.1L-1638.4 111.1z" /></clipPath><clipPath id="10"><path d="M0 -0.9000244L595.3 -0.9000244L595.3 -0.9000244L595.3 841L595.3 841L0 841z" /></clipPath><clipPath id="11"><path d="M-1638.4 111.1L2143.65 111.1L2143.65 111.1L2143.65 131.1L2143.65 131.1L-1638.4 131.1z" /></clipPath><clipPath id="12"><path d="M0 -0.9000244L595.3 -0.9000244L595.3 -0.9000244L595.3 841L595.3 841L0 841z" /></clipPath><clipPath id="13"><path d="M-1638.4 131.05L2143.65 131.05L2143.65 131.05L2143.65 151.05L2143.65 151.05L-1638.4 151.05z" /></clipPath><clipPath id="14"><path d="M0 -0.9000244L595.3 -0.9000244L595.3 -0.9000244L595.3 841L595.3 841L0 841z" /></clipPath><clipPath id="15"><path d="M-1638.4 211.1L2143.65 211.1L2143.65 211.1L2143.65 231.1L2143.65 231.1L-1638.4 231.1z" /></clipPath><clipPath id="16"><path d="M0 -0.9000244L595.3 -0.9000244L595.3 -0.9000244L595.3 841L595.3 841L0 841z" /></clipPath><clipPath id="17"><path d="M-1638.4 445.2L2143.65 445.2L2143.65 445.2L2143.65 465.2L2143.65 465.2L-1638.4 465.2z" /></clipPath><clipPath id="18"><path d="M0 -0.9000244L595.3 -0.9000244L595.3 -0.9000244L595.3 841L595.3 841L0 841z" /></clipPath><clipPath id="19"><path d="M-1638.4 465.25L2143.65 465.25L2143.65 465.25L2143.65 485.25L2143.65 485.25L-1638.4 485.25z" /></clipPath><clipPath id="20"><path d="M0 -0.9000244L595.3 -0.9000244L595.3 -0.9000244L595.3 841L595.3 841L0 841z" /></clipPath><clipPath id="21"><path d="M-1638.4 485.25L2143.65 485.25L2143.65 485.25L2143.65 505.25L2143.65 505.25L-1638.4 505.25z" /></clipPath><clipPath id="22"><path d="M0 -0.9000244L595.3 -0.9000244L595.3 -0.9000244L595.3 841L595.3 841L0 841z" /></clipPath><clipPath id="23"><path d="M-1638.4 505.2L2143.65 505.2L2143.65 505.2L2143.65 525.2L2143.65 525.2L-1638.4 525.2z" /></clipPath><clipPath id="24"><path d="M0 -0.9000244L595.3 -0.9000244L595.3 -0.9000244L595.3 841L595.3 841L0 841z" /></clipPath><clipPath id="25"><path d="M-1638.4 685.2L2143.65 685.2L2143.65 685.2L2143.65 705.2L2143.65 705.2L-1638.4 705.2z" /></clipPath><clipPath id="26"><path d="M0 -0.9000244L595.3 -0.9000244L595.3 -0.9000244L595.3 841L595.3 841L0 841z" /></clipPath><clipPath id="27"><path d="M-1638.4 705.25L2143.65 705.25L2143.65 705.25L2143.65 725.25L2143.65 725.25L-1638.4 725.25z" /></clipPath><clipPath id="28"><path d="M0 -0.9000244L595.3 -0.9000244L595.3 -0.9000244L595.3 841L595.3 841L0 841z" /></clipPath><clipPath id="29"><path d="M-1638.4 725.25L2143.65 725.25L2143.65 725.25L2143.65 745.25L2143.65 745.25L-1638.4 745.25z" /></clipPath><clipPath id="30"><path d="M0 -0.9000244L595.3 -0.9000244L595.3 -0.9000244L595.3 841L595.3 841L0 841z" /></clipPath><clipPath id="31"><path d="M-1638.4 745.2L2143.65 745.2L2143.65 745.2L2143.65 765.2L2143.65 765.2L-1638.4 765.2z" /></clipPath></defs><g transform="matrix(1.333333 0 0 1.333333 0 0)"><g><g clip-path="url(#1)"><g clip-path="url(#2)"><path transform="matrix(1 0 0 -1 0 841)" d="M90 774.4L505.3 774.4L505.3 774.4L505.3 773.92L505.3 773.92L90 773.92z" stroke="none" fill="#000000" fill-rule="evenodd" /></g><g clip-path="url(#3)"><g clip-path="url(#4)"></g></g><g clip-path="url(#5)"><g transform="matrix(0.2520218 0 0 0.2517483 95.52 154.38)"><g transform="matrix(1 0 0 1 0 0)"><image x="0" y="0" xlink:href="img_27.png" width="1647" height="286" /></g></g><g transform="matrix(0.2466389 0 0 0.2465346 90.96 237.54)"><g transform="matrix(1 0 0 1 0 0)"><image x="0" y="0" xlink:href="img_28.png" width="1681" height="808" /></g></g><g transform="matrix(0.4316827 0 0 0.4314733 108 538.02)"><g transform="matrix(1 0 0 1 0 0)"><image x="0" y="0" xlink:href="img_29.png" width="832" height="319" /></g></g></g><g clip-path="url(#6)"><g clip-path="url(#7)"></g></g><g clip-path="url(#8)"><g clip-path="url(#9)"></g></g><g clip-path="url(#10)"><g clip-path="url(#11)"></g></g><g clip-path="url(#12)"><g clip-path="url(#13)"></g></g><g clip-path="url(#14)"><g clip-path="url(#15)"></g></g><g clip-path="url(#16)"><g clip-path="url(#17)"></g></g><g clip-path="url(#18)"><g clip-path="url(#19)"></g></g><g clip-path="url(#20)"><g clip-path="url(#21)"></g></g><g clip-path="url(#22)"><g clip-path="url(#23)"></g></g><g clip-path="url(#24)"><g clip-path="url(#25)"></g></g><g clip-path="url(#26)"><g clip-path="url(#27)"></g></g><g clip-path="url(#28)"><g clip-path="url(#29)"></g></g><g clip-path="url(#30)"><g clip-path="url(#31)"></g></g></g></g></g></svg>